<?xml version="1.0" encoding="UTF-8" standalone="no"?>
<svg
   xmlns:dc="http://purl.org/dc/elements/1.1/"
   xmlns:cc="http://creativecommons.org/ns#"
   xmlns:rdf="http://www.w3.org/1999/02/22-rdf-syntax-ns#"
   xmlns:svg="http://www.w3.org/2000/svg"
   xmlns="http://www.w3.org/2000/svg"
   xmlns:sodipodi="http://sodipodi.sourceforge.net/DTD/sodipodi-0.dtd"
   xmlns:inkscape="http://www.inkscape.org/namespaces/inkscape"
   width="115.56mm"
   height="116.14957mm"
   viewBox="0 0 115.56 116.14957"
   version="1.1"
   id="svg8"
   inkscape:version="1.0.1 (3bc2e813f5, 2020-09-07)"
   sodipodi:docname="certificate.svg">
  <defs
     id="defs2" />
  <sodipodi:namedview
     id="base"
     pagecolor="#ffffff"
     bordercolor="#666666"
     borderopacity="1.0"
     inkscape:pageopacity="0.0"
     inkscape:pageshadow="2"
     inkscape:zoom="0.35"
     inkscape:cx="-0.79845656"
     inkscape:cy="144.70922"
     inkscape:document-units="mm"
     inkscape:current-layer="layer1"
     inkscape:document-rotation="0"
     showgrid="false"
     inkscape:window-width="1440"
     inkscape:window-height="837"
     inkscape:window-x="-8"
     inkscape:window-y="-8"
     inkscape:window-maximized="1" />
  <metadata
     id="metadata5">
    <rdf:RDF>
      <cc:Work
         rdf:about="">
        <dc:format>image/svg+xml</dc:format>
        <dc:type
           rdf:resource="http://purl.org/dc/dcmitype/StillImage" />
        <dc:title></dc:title>
      </cc:Work>
    </rdf:RDF>
  </metadata>
  <g
     inkscape:label="Capa 1"
     inkscape:groupmode="layer"
     id="layer1"
     transform="translate(-36.250878,-90.962509)">
    <path
       style="fill:#fff;stroke:none;stroke-width:0.264583"
       d="m 46.528867,179.482 v 19.31458 c 0,2.25584 -0.62817,5.54567 1.37928,7.1456 3.29297,2.6244 10.37862,-2.61937 13.43739,-4.17063 1.06177,-0.53842 2.45057,-1.67375 3.70417,-1.43589 4.776776,0.90646 8.670916,5.60652 13.493746,6.34206 4.97072,0.75803 10.5791,0.0564 15.61041,0.0564 h 32.014587 c 7.35727,0 18.44119,2.31166 23.39049,-4.49898 2.5699,-3.53615 2.00951,-8.30421 2.00951,-12.43435 v -25.4 -32.54376 c 0,-4.87891 0.98822,-11.04397 -1.02579,-15.61041 -1.77694,-4.02961 -6.23438,-7.26012 -9.29296,-10.31875 -4.42119,-4.42124 -9.32048,-11.39118 -15.08125,-14.01373 -3.21469,-1.46352 -7.40172,-0.80294 -10.84792,-0.80294 H 93.360113 78.808033 c -2.87629,0 -5.86608,-0.30469 -8.46667,1.18206 -8.875576,5.07407 -5.820826,20.09732 -5.820826,28.71586 0,1.905 0.59399,4.94136 -0.0442,6.72676 -0.51514,1.44093 -5.55255,-0.69294 -6.83498,-0.5072 -2.87996,0.41725 -4.53239,3.45149 -6.87917,4.90511 -1.95672,1.21179 -4.4011,1.23772 -6.34592,2.42861 -2.56125,1.56792 -2.36718,5.17525 -3.62088,7.61338 -1.01415,1.97221 -3.41333,3.26364 -4.16105,5.29167 -1.01441,2.7514 0.29826,6.21877 0.35523,8.99584 0.0609,2.97153 -1.44229,6.58309 -0.31848,9.525 0.70281,1.83991 2.79398,3.08874 3.84892,4.7625 1.94593,3.08742 1.30747,8.24653 6.00885,8.73125 M 115.32051,98.25491 v 20.37292 c 0,3.22077 0.0302,6.47171 3.43959,8.00259 1.87854,0.84349 4.34049,0.46407 6.35,0.46407 h 12.7 c 1.27185,0 5.81474,-0.68791 6.45504,0.61331 0.49503,1.00647 0.15954,2.78553 0.15954,3.88461 -2.6e-4,3.19485 -0.35639,6.32275 -0.13732,9.525 0.94086,13.73637 -0.14949,27.7667 -0.12726,41.53959 0.006,3.67347 0.0841,7.43161 0.17171,11.1125 0.0442,1.85975 0.0458,4.14417 -1.77059,5.21784 -1.58327,0.9361 -3.78539,0.60299 -5.54487,0.60299 H 125.63926 82.776763 V 185.832 c 0,-1.60391 -0.51329,-4.27541 0.15954,-5.74808 0.53817,-1.17766 2.46116,-1.57982 3.2512,-2.72917 1.33324,-1.93887 1.35441,-4.54025 2.50243,-6.604 1.20571,-2.16747 3.54251,-3.54225 4.52914,-5.82084 1.15279,-2.66224 -0.95567,-5.70494 -0.88318,-8.46666 0.0601,-2.2913 1.52109,-4.59449 1.22846,-6.87917 -0.34607,-2.70457 -3.26919,-4.47728 -4.6736,-6.61459 -1.71926,-2.61646 -1.30519,-6.70268 -4.26297,-8.44391 -1.69624,-0.9988 -3.80073,-1.08902 -5.55519,-1.97458 -1.81689,-0.91731 -3.25411,-2.5109 -4.7625,-3.84149 -0.62309,-0.54954 -1.85367,-0.96917 -2.2217,-1.72561 -0.4318,-0.88821 -0.15955,-2.36458 -0.15955,-3.32899 v -7.67292 -11.37708 c 0,-1.66013 -0.31829,-3.65363 0.86757,-4.99932 2.22674,-2.52744 8.23384,-1.35068 11.30327,-1.35068 h 31.220827 m 28.83959,21.69583 H 122.72887 V 98.5195 c 2.41538,0.82113 4.31879,3.52506 6.08541,5.29166 l 10.31875,10.31875 c 1.74493,1.74493 4.10845,3.4798 5.02709,5.82083 m -85.195833,15.02146 4.7625,0.5879 6.614576,-0.55112 4.23334,3.1742 5.42131,2.42782 1.80499,4.21058 3.98727,5.82083 -0.62918,5.55625 0.66754,6.35 -3.28983,4.49792 -2.21509,5.42131 -2.8366,1.25386 -5.55625,3.17447 -6.879156,-1.28376 -7.40834,1.31816 -2.38125,-1.36234 -6.15749,-3.07922 -1.86555,-4.64873 -3.78581,-5.55625 0.68593,-6.35 -0.61979,-5.29167 3.59841,-5.02708 2.02031,-4.84108 5.59483,-2.55164 4.23333,-3.25041 m 16.404166,49.00771 0.26458,13.22917 c -3.55441,-1.02394 -7.055106,-4.59767 -10.772506,-4.78393 -3.44839,-0.17277 -7.71406,3.60177 -10.92332,4.78393 v -13.22917 c 4.25542,1.76874 6.99367,-1.16337 11.37708,-1.05436 4.060026,0.1008 5.972696,2.89771 10.054166,1.05436 z"
       id="path847" />
  </g>
</svg>
