<?xml version="1.0" encoding="UTF-8" standalone="no"?>
<svg
   xmlns:dc="http://purl.org/dc/elements/1.1/"
   xmlns:cc="http://creativecommons.org/ns#"
   xmlns:rdf="http://www.w3.org/1999/02/22-rdf-syntax-ns#"
   xmlns:svg="http://www.w3.org/2000/svg"
   xmlns="http://www.w3.org/2000/svg"
   xmlns:sodipodi="http://sodipodi.sourceforge.net/DTD/sodipodi-0.dtd"
   xmlns:inkscape="http://www.inkscape.org/namespaces/inkscape"
   width="29.823006mm"
   height="30.01531mm"
   viewBox="0 0 29.823006 30.01531"
   version="1.1"
   id="svg8"
   inkscape:version="1.0.1 (3bc2e813f5, 2020-09-07)"
   sodipodi:docname="accesorios.svg">
  <defs
     id="defs2" />
  <sodipodi:namedview
     id="base"
     pagecolor="#ffffff"
     bordercolor="#666666"
     borderopacity="1.0"
     inkscape:pageopacity="0.0"
     inkscape:pageshadow="2"
     inkscape:zoom="0.7"
     inkscape:cx="-75.920234"
     inkscape:cy="72.689055"
     inkscape:document-units="mm"
     inkscape:current-layer="layer1"
     inkscape:document-rotation="0"
     showgrid="false"
     inkscape:window-width="1440"
     inkscape:window-height="837"
     inkscape:window-x="-8"
     inkscape:window-y="-8"
     inkscape:window-maximized="1" />
  <metadata
     id="metadata5">
    <rdf:RDF>
      <cc:Work
         rdf:about="">
        <dc:format>image/svg+xml</dc:format>
        <dc:type
           rdf:resource="http://purl.org/dc/dcmitype/StillImage" />
        <dc:title></dc:title>
      </cc:Work>
    </rdf:RDF>
  </metadata>
  <g
     inkscape:label="Capa 1"
     inkscape:groupmode="layer"
     id="layer1"
     transform="translate(-94.630495,-141.48298)">
    <path
       style="fill:#ffffff;stroke:none;stroke-width:0.169333"
       d="m 96.711878,141.85927 c -1.962251,0.47697 -2.032,2.32382 -2.032,3.97372 v 11.51467 8.97466 c 0,1.22462 -0.27125,2.82465 0.457696,3.89213 0.930566,1.36246 2.496273,1.18787 3.944971,1.18787 h 8.297325 c 1.20476,0 2.72327,0.24825 3.89206,-0.0538 0.8845,-0.2286 1.22401,-1.30015 1.70323,-1.97816 0.71848,-1.01667 1.68605,-1.98272 2.70205,-2.70205 1.56481,-1.10778 3.49233,-1.98696 5.41866,-2.17966 0.87292,-0.0874 2.47092,0.31869 3.01769,-0.57556 0.54119,-0.88511 0.19965,-2.6797 0.19965,-3.68673 0,-1.66908 0.42045,-4.01772 -0.1944,-5.588 -0.65667,-1.67704 -2.78604,-3.14972 -4.03894,-4.40266 l -5.41866,-5.41867 c -0.8868,-0.88678 -1.77953,-2.06932 -2.87867,-2.69418 -1.16774,-0.66384 -2.93798,-0.35382 -4.23333,-0.35382 -3.34931,0 -7.585455,-0.70015 -10.837332,0.0903 m 0.515451,1.67648 c 0.957376,-0.27935 2.218215,-0.0734 3.209881,-0.0734 h 6.77333 c 1.09269,0 2.72647,-0.29978 3.72533,0.19965 0.97824,0.48908 1.77648,1.5769 2.54,2.34035 l 4.91067,4.91067 c 1.2236,1.2236 3.48217,2.76513 4.10769,4.40267 0.45144,1.18191 0.12564,2.97891 0.12564,4.23333 0,0.78791 0.25163,2.10583 -0.1021,2.82482 -0.30717,0.62416 -1.83236,0.43976 -2.4379,0.56252 -1.97087,0.39929 -3.78375,1.20786 -5.41866,2.37677 -1.02582,0.73338 -2.01151,1.71179 -2.79095,2.70256 -0.4218,0.53611 -0.74829,1.44238 -1.46003,1.63948 -1.00086,0.2772 -2.33365,0.0539 -3.36902,0.0539 h -7.111999 c -0.902919,0 -2.799909,0.36339 -3.356356,-0.54661 -0.521468,-0.85293 -0.199644,-2.54863 -0.199644,-3.51739 v -8.80533 -9.99067 c 0,-0.98728 -0.391442,-2.9498 0.854118,-3.31324 m 1.401047,1.96328 c -0.660062,0.44045 -0.392498,1.85608 -0.392498,2.53529 v 6.77334 c 0,0.69946 -0.230073,1.90019 0.392498,2.39471 0.961254,0.76352 3.351694,0.31462 4.518164,0.31462 h 12.36133 c 1.19499,0 3.89552,0.49955 4.85682,-0.29503 0.72898,-0.60252 0.17933,-1.53233 -0.30327,-2.07564 -1.2634,-1.42233 -2.70036,-2.71883 -4.04555,-4.064 -1.58987,-1.58994 -3.80762,-4.87388 -5.92666,-5.65515 -1.86892,-0.68907 -4.95075,-0.10218 -6.94267,-0.10218 -1.12244,0 -3.567087,-0.46062 -4.518164,0.17404 m 19.419494,10.15529 H 99.929211 v -8.636 h 6.434659 l 3.048,0.10218 2.70934,2.43782 5.92666,6.096 m -19.278914,5.39462 c -0.958748,0.45958 -0.571855,2.49513 -0.194411,3.24071 0.837895,1.65523 2.947315,2.27685 4.571865,1.46067 1.15019,-0.57794 3.05172,-3.54517 1.45071,-4.64702 -0.8646,-0.59504 -4.888787,-0.50461 -5.828164,-0.0544 m 4.546914,1.54805 c -0.17444,2.31377 -3.13425,2.26619 -3.386659,0 z"
       id="path867" />
    <path
       style="fill:#000000;stroke-width:0.169333"
       id="path865"
       d="" />
  </g>
</svg>
