<?xml version="1.0" encoding="UTF-8" standalone="no"?>
<svg
   xmlns:dc="http://purl.org/dc/elements/1.1/"
   xmlns:cc="http://creativecommons.org/ns#"
   xmlns:rdf="http://www.w3.org/1999/02/22-rdf-syntax-ns#"
   xmlns:svg="http://www.w3.org/2000/svg"
   xmlns="http://www.w3.org/2000/svg"
   xmlns:sodipodi="http://sodipodi.sourceforge.net/DTD/sodipodi-0.dtd"
   xmlns:inkscape="http://www.inkscape.org/namespaces/inkscape"
   width="50.773445mm"
   height="23.328442mm"
   viewBox="0 0 50.773446 23.328441"
   version="1.1"
   id="svg875"
   inkscape:version="1.0.1 (3bc2e813f5, 2020-09-07)"
   sodipodi:docname="carroceria.svg">
  <defs
     id="defs869" />
  <sodipodi:namedview
     id="base"
     pagecolor="#ffffff"
     bordercolor="#666666"
     borderopacity="1.0"
     inkscape:pageopacity="0.0"
     inkscape:pageshadow="2"
     inkscape:zoom="0.7"
     inkscape:cx="72.46622"
     inkscape:cy="27.357305"
     inkscape:document-units="mm"
     inkscape:current-layer="layer1"
     inkscape:document-rotation="0"
     showgrid="false"
     inkscape:window-width="1258"
     inkscape:window-height="860"
     inkscape:window-x="166"
     inkscape:window-y="0"
     inkscape:window-maximized="0" />
  <metadata
     id="metadata872">
    <rdf:RDF>
      <cc:Work
         rdf:about="">
        <dc:format>image/svg+xml</dc:format>
        <dc:type
           rdf:resource="http://purl.org/dc/dcmitype/StillImage" />
        <dc:title></dc:title>
      </cc:Work>
    </rdf:RDF>
  </metadata>
  <g
     inkscape:label="Capa 1"
     inkscape:groupmode="layer"
     id="layer1"
     transform="translate(-75.229674,-210.27254)">
    <path
       style="fill:#ffffff;stroke:none;stroke-width:0.169333"
       d="m 91.397663,210.74138 0.169334,5.08 v 9.31333 h 32.342673 v 0.67734 H 97.154997 c -1.537208,0 -4.493768,-0.57641 -5.872819,0.10211 -0.632308,0.31123 -0.649935,3.03022 -0.121073,3.44915 0.769958,0.60977 3.173307,0.17407 4.131225,0.17407 h 8.636 c 1.24866,0 2.84768,0.26721 4.05672,-0.0539 0.90102,-0.23927 1.42054,-1.47506 2.20861,-1.9834 2.43028,-1.56718 4.88307,-0.13784 6.26534,2.03725 h 0.33867 c 2.08229,-3.38633 5.71093,-3.45999 7.95866,-0.16933 2.19964,-0.76573 0.81111,-3.08119 0.84921,-4.74134 0.10702,-4.67797 0.16679,-9.36443 0.16679,-14.05466 h -23.368 c -3.339422,0 -7.81033,-0.77545 -11.006667,0.16933 m -16.086667,11.684 h 0.508 v 3.21733 h -0.508 c 0,0.91407 -0.214818,2.1331 0.05383,3.0094 0.229663,0.74913 1.377103,0.5466 1.978169,0.5466 2.296228,0 3.109807,-2.30649 5.418667,-2.36135 2.137291,-0.0508 2.696532,1.85843 4.409339,2.30751 1.342779,0.35204 2.25088,-0.0838 2.348839,-1.47016 0.272339,-3.85453 0.01516,-7.81905 0.01516,-11.684 0,-0.98287 0.431038,-3.33485 -0.199644,-4.13115 -0.314097,-0.39658 -1.052238,-0.27131 -1.49369,-0.27151 h -3.894667 -4.572 c -0.526847,0 -1.329436,-0.1404 -1.789362,0.17404 -0.690017,0.47173 -0.756057,2.11744 -0.922325,2.87396 -0.576242,2.6219 -1.352313,5.08811 -1.352313,7.78933 m 12.361334,-9.144 -0.168673,4.23333 -0.04613,1.59116 -2.325201,0.27151 -7.281334,-0.16933 1.046175,-5.82449 2.171158,-0.27151 6.604001,0.16933 m -0.508,6.77333 c -0.477944,0.73723 -1.892724,0.73723 -2.370667,0 h 2.370667 M 80.221662,226.32 c -0.59922,1.29167 -1.381879,1.52383 -2.709334,1.524 0.0065,-1.84387 1.191294,-1.524 2.709334,-1.524 m 1.862667,1.29337 c -3.788343,1.09507 -1.987076,6.82768 1.693333,5.85859 4.064305,-1.07019 2.279938,-7.00701 -1.693333,-5.85859 m 29.633331,-0.0178 c -3.84081,0.92777 -2.23536,6.85342 1.524,5.90245 4.06688,-1.02887 2.49022,-6.87206 -1.524,-5.90245 m 8.29734,0.004 c -3.84251,1.00804 -2.05689,6.94013 1.69333,5.86791 4.00067,-1.14385 2.26856,-6.90728 -1.69333,-5.86791 m -37.253338,0.81466 c 2.627664,-0.35407 3.393203,3.72025 0.677333,4.13444 -2.808088,0.42842 -3.515462,-3.75208 -0.677333,-4.13444 m 29.463998,-0.002 c 2.63348,-0.43908 3.53044,3.65066 0.84667,4.13461 -2.815,0.50749 -3.74345,-3.65167 -0.84667,-4.13461 m 8.46667,0.003 c 2.61248,-0.34358 3.29794,3.73397 0.67734,4.13427 -2.88036,0.4401 -3.56532,-3.75462 -0.67734,-4.13427 z"
       id="path1456" />
    <path
       style="fill:#000000;stroke-width:0.169333"
       id="path1452"
       d="" />
  </g>
</svg>
